<svg id="visual" viewBox="0 0 2500 960" width="2500" height="960" xmlns="http://www.w3.org/2000/svg" xmlns:xlink="http://www.w3.org/1999/xlink" version="1.1"><rect x="0" y="0" width="2500" height="960" fill="#fcd207"></rect><path d="M0 611L357 636L714 585L1071 645L1429 693L1786 706L2143 599L2500 719L2500 961L2143 961L1786 961L1429 961L1071 961L714 961L357 961L0 961Z" fill="#f99e26"></path><path d="M0 755L357 752L714 666L1071 667L1429 738L1786 720L2143 699L2500 704L2500 961L2143 961L1786 961L1429 961L1071 961L714 961L357 961L0 961Z" fill="#f88a29"></path><path d="M0 770L357 724L714 730L1071 786L1429 766L1786 792L2143 760L2500 704L2500 961L2143 961L1786 961L1429 961L1071 961L714 961L357 961L0 961Z" fill="#f5762f"></path><path d="M0 841L357 810L714 829L1071 846L1429 849L1786 786L2143 779L2500 813L2500 961L2143 961L1786 961L1429 961L1071 961L714 961L357 961L0 961Z" fill="#f06135"></path><path d="M0 856L357 876L714 852L1071 896L1429 873L1786 859L2143 867L2500 906L2500 961L2143 961L1786 961L1429 961L1071 961L714 961L357 961L0 961Z" fill="#e84c3c"></path></svg>