<svg id="visual" viewBox="0 0 2500 250" width="2500" height="250" xmlns="http://www.w3.org/2000/svg" xmlns:xlink="http://www.w3.org/1999/xlink" version="1.1"><rect x="0" y="0" width="2500" height="250" fill="#fcd207"></rect><path d="M0 92L59.5 87C119 82 238 72 357 63.8C476 55.7 595 49.3 714 48.2C833 47 952 51 1071.2 57C1190.3 63 1309.7 71 1428.8 76.3C1548 81.7 1667 84.3 1786 79C1905 73.7 2024 60.3 2143 61C2262 61.7 2381 76.3 2440.5 83.7L2500 91L2500 0L2440.5 0C2381 0 2262 0 2143 0C2024 0 1905 0 1786 0C1667 0 1548 0 1428.8 0C1309.7 0 1190.3 0 1071.2 0C952 0 833 0 714 0C595 0 476 0 357 0C238 0 119 0 59.5 0L0 0Z" fill="#FFFFFF" stroke-linecap="round" stroke-linejoin="miter"></path></svg>